<?xml version="1.0" encoding="UTF-8" standalone="no" ?>
<!DOCTYPE svg PUBLIC "-//W3C//DTD SVG 1.1//EN" "http://www.w3.org/Graphics/SVG/1.1/DTD/svg11.dtd">
<svg xmlns="http://www.w3.org/2000/svg" xmlns:xlink="http://www.w3.org/1999/xlink" version="1.1" width="640" height="640" viewBox="0 0 640 640" xml:space="preserve">
<desc>Created with Fabric.js 5.3.0</desc>
<defs>
</defs>
<g transform="matrix(1 0 0 1 398.8605888748 398.2548140402)" id="hkaPf0q_o60j-Wwl99ism"  >
<path style="stroke: rgb(151,59,13); stroke-width: 0; stroke-dasharray: none; stroke-linecap: butt; stroke-dashoffset: 0; stroke-linejoin: miter; stroke-miterlimit: 4; fill: rgb(255,221,0); fill-rule: nonzero; opacity: 1;"  transform=" translate(-43.8262078296, -43.8262078296)" d="M 4.39735 33.21006 C -1.4657899999999993 39.0732 -1.4657899999999993 48.57922 4.39735 54.442359999999994 L 33.21006 83.25506999999999 C 39.0732 89.11820999999999 48.57922 89.11820999999999 54.442359999999994 83.25506999999999 L 83.25506999999999 54.442359999999994 C 89.11820999999999 48.57921999999999 89.11820999999999 39.07319999999999 83.25506999999999 33.21006 L 54.442359999999994 4.397349999999999 C 48.57921999999999 -1.4657900000000001 39.07319999999999 -1.4657900000000001 33.21006 4.397349999999999 z" stroke-linecap="round" />
</g>
<g transform="matrix(1 0 0 1 161.2450505878 320.0000009506)" id="Le8evVfUs1wNMq1hAlrRl"  >
<path style="stroke: rgb(203,5,55); stroke-width: 0; stroke-dasharray: none; stroke-linecap: butt; stroke-dashoffset: 0; stroke-linejoin: miter; stroke-miterlimit: 4; fill: rgb(255,119,0); fill-rule: nonzero; opacity: 1;"  transform=" translate(-128.0838303488, -128.0838303488)" d="M 83.14718 241.90795 C 64.13424 260.92089 33.272650000000006 260.92089 14.259710000000013 241.90795 C -4.753229999999988 222.89501 -4.753229999999988 192.03342 14.259710000000013 173.02048000000002 C 14.262640000000012 173.01755000000003 14.265580000000012 173.01461000000003 14.268510000000013 173.01168 C 14.271440000000013 173.00875000000002 173.01755000000003 14.262640000000005 173.02048000000002 14.259710000000013 C 192.03342000000004 -4.753229999999988 222.89501 -4.753229999999988 241.90795000000003 14.259710000000013 C 260.92089000000004 33.27265000000001 260.92089000000004 64.13424 241.90795000000003 83.14718 z" stroke-linecap="round" />
</g>
<g transform="matrix(1 0 0 1 398.8605919122 320)" id="z-w8f7B27p1oXt2oHGpZJ"  >
<path style="stroke: rgb(203,5,55); stroke-width: 0; stroke-dasharray: none; stroke-linecap: butt; stroke-dashoffset: 0; stroke-linejoin: miter; stroke-miterlimit: 4; fill: rgb(0,178,169); fill-rule: nonzero; opacity: 1;"  transform=" translate(-207.9781825, -128.2998158848)" d="M 83.28739 242.31587 C 64.24238 261.36088 33.32876 261.36088 14.283760000000001 242.31587 C -4.76125 223.27086 -4.76125 192.35724 14.283760000000001 173.31223999999997 C 14.286700000000002 173.30929999999998 14.28964 173.30635999999998 14.292580000000001 173.30342 C 14.295520000000002 173.30048 173.3093 14.286699999999996 173.31225 14.283749999999998 C 182.87645 4.719549999999998 195.43385 -0.041610000000002145 207.97815 0.00026999999999688384 C 220.52247 -0.04164000000000312 233.07990999999998 4.719519999999997 242.64413 14.283749999999998 L 401.67260999999996 173.31223 C 420.71761999999995 192.35724 420.71761999999995 223.27086 401.67260999999996 242.31586 C 382.6276 261.36087 351.71398 261.36087 332.66898 242.31586 C 332.66603999999995 242.31292 332.6631 242.30998 332.66015999999996 242.30704 C 332.6581 242.30498 254.72817999999995 164.37506000000002 207.97818999999996 117.62507 z" stroke-linecap="round" />
</g>
</svg>